<?xml version="1.0" encoding="UTF-8"?>
<svg version="1.1" xmlns="http://www.w3.org/2000/svg" width="184" height="40">
<path d="M0 0 C60.72 0 121.44 0 184 0 C184 13.2 184 26.4 184 40 C123.28 40 62.56 40 0 40 C0 26.8 0 13.6 0 0 Z " fill="#0F0E0F" transform="translate(0,0)"/>
<path d="M0 0 C0.33 -3.96 0.66 -7.92 1 -12 C3.64 -12 6.28 -12 9 -12 C9.495 -8.535 9.495 -8.535 10 -5 C10.56762306 -5.74362541 10.56762306 -5.74362541 11.14671326 -6.50227356 C14.88987477 -10.59317816 18.02546587 -12.40257256 23.63774204 -12.79413891 C27.48185095 -12.90934915 31.31527207 -12.88401077 35.16015625 -12.82421875 C36.83588925 -12.82131127 38.51162836 -12.82093122 40.18736267 -12.82295227 C43.68865987 -12.81974527 47.18869415 -12.79290103 50.68969727 -12.74780273 C55.16424432 -12.69109072 59.63722116 -12.68295009 64.11206913 -12.69121075 C67.56870435 -12.69401584 71.02499291 -12.67636335 74.48153496 -12.65207863 C76.13084026 -12.64190926 77.78018491 -12.63677078 79.42952156 -12.63687706 C81.73895524 -12.63288448 84.04660933 -12.6026284 86.35571289 -12.56518555 C87.66617081 -12.55295456 88.97662872 -12.54072357 90.32679749 -12.52812195 C94.80100996 -11.88483321 97.23885595 -10.44502373 101 -8 C101.10841951 -6.08458862 101.18578079 -4.16740227 101.25 -2.25 C101.29640625 -1.18265625 101.3428125 -0.1153125 101.390625 0.984375 C100.91199319 4.67941256 99.7829545 5.63950538 97 8 C95.82425289 10.09989652 95.82425289 10.09989652 95 12 C94 13 94 13 90.39819336 13.11352539 C88.79540144 13.11336625 87.1926044 13.10767063 85.58984375 13.09765625 C84.74780899 13.0962413 83.90577423 13.09482635 83.03822327 13.09336853 C80.33794665 13.08775263 77.63775172 13.07519748 74.9375 13.0625 C73.11132932 13.05748705 71.28515734 13.05292379 69.45898438 13.04882812 C64.97262458 13.03777804 60.48632616 13.02050279 56 13 C56 12.34 56 11.68 56 11 C68.54 10.67 81.08 10.34 94 10 C81.79 10 69.58 10 57 10 C57 5.38 57 0.76 57 -4 C54.36 -4 51.72 -4 49 -4 C49.804375 -3.2575 50.60875 -2.515 51.4375 -1.75 C54 1 54 1 55.125 3 C54.9145578 6.36707516 52.39635129 7.82656511 50 10 C49.01 11.485 49.01 11.485 48 13 C45.23371085 13.2667616 42.69380369 13.34804189 39.9296875 13.29296875 C39.13345978 13.28872391 38.33723206 13.28447906 37.51687622 13.28010559 C34.96924271 13.26328834 32.42239511 13.22563179 29.875 13.1875 C28.14975099 13.17245705 26.42448961 13.15876796 24.69921875 13.14648438 C20.46584218 13.11337501 16.23305441 13.06157285 12 13 C12 12.34 12 11.68 12 11 C11.01 11.66 10.02 12.32 9 13 C6.66800612 13.07905064 4.33167378 13.08798769 2 13 C2 12.34 2 11.68 2 11 C3.65 11 5.3 11 7 11 C7 10.34 7 9.68 7 9 C4.69 9 2.38 9 0 9 C-0.33 8.01 -0.66 7.02 -1 6 C-2.64130738 5.2731353 -4.31466544 4.61795601 -6 4 C-9.05762045 2.27602251 -12.05540643 0.46664307 -15.0625 -1.34375 C-18.25997575 -3.23207543 -18.25997575 -3.23207543 -23 -5 C-23.33 -0.71 -23.66 3.58 -24 8 C-25.98 8 -27.96 8 -30 8 C-30.02683987 5.02077407 -30.04676037 2.04178705 -30.0625 -0.9375 C-30.07087891 -1.78763672 -30.07925781 -2.63777344 -30.08789062 -3.51367188 C-30.09111328 -4.32255859 -30.09433594 -5.13144531 -30.09765625 -5.96484375 C-30.10289307 -6.7137085 -30.10812988 -7.46257324 -30.11352539 -8.23413086 C-30 -10 -30 -10 -29 -11 C-18.8326342 -14.38912193 -8.30824446 -5.13156276 0 0 Z " fill="#434343" transform="translate(81,21)"/>
<path d="M0 0 C0.33 0 0.66 0 1 0 C1 5.94 1 11.88 1 18 C3.64 18 6.28 18 9 18 C9 18.66 9 19.32 9 20 C7.02 20 5.04 20 3 20 C3 20.66 3 21.32 3 22 C5.31 22 7.62 22 10 22 C9.7525 20.576875 9.7525 20.576875 9.5 19.125 C8.81458208 14.4236123 8.91416559 9.73996714 9 5 C12.7622523 4.77767763 14.94247718 5.18705191 18.171875 7.1171875 C19.29142578 7.78041016 19.29142578 7.78041016 20.43359375 8.45703125 C21.19800781 8.92496094 21.96242188 9.39289062 22.75 9.875 C23.52988281 10.33519531 24.30976562 10.79539062 25.11328125 11.26953125 C30.85825893 14.71651786 30.85825893 14.71651786 32 17 C34.32156597 17.40729228 36.6568787 17.74438677 39 18 C39 18.66 39 19.32 39 20 C37.35 20 35.7 20 34 20 C34 20.66 34 21.32 34 22 C37.46941546 21.54177532 40.67395049 21.10868317 44 20 C44 20.66 44 21.32 44 22 C55.88 22 67.76 22 80 22 C80.99 19.525 80.99 19.525 82 17 C84.125 15.1875 84.125 15.1875 86 14 C85.60401298 11.12909413 85.2676157 10.21084873 82.9375 8.375 C81.9784375 7.694375 81.9784375 7.694375 81 7 C81 6.34 81 5.68 81 5 C83.64 5 86.28 5 89 5 C89.33 9.29 89.66 13.58 90 18 C102.21 18 114.42 18 127 18 C126.67 18.66 126.34 19.32 126 20 C113.46 20 100.92 20 88 20 C88 20.66 88 21.32 88 22 C88.86802246 21.98428955 89.73604492 21.9685791 90.63037109 21.95239258 C93.84698287 21.90130445 97.06338813 21.86366973 100.28027344 21.83520508 C101.67324622 21.82010642 103.06617138 21.79962556 104.45898438 21.77368164 C106.45942885 21.73734878 108.46021827 21.72188808 110.4609375 21.70703125 C112.26763916 21.68346558 112.26763916 21.68346558 114.11083984 21.65942383 C115.0642627 21.77181396 116.01768555 21.8842041 117 22 C117.99 23.485 117.99 23.485 119 25 C118.67 25.99 118.34 26.98 118 28 C62.89 28 7.78 28 -49 28 C-49 22.72 -49 17.44 -49 12 C-44.25 13.1875 -44.25 13.1875 -42 16 C-42 16.66 -42 17.32 -42 18 C-32.43 18 -22.86 18 -13 18 C-12.505 18.99 -12.505 18.99 -12 20 C-14.31 20.33 -16.62 20.66 -19 21 C-15.37 21.33 -11.74 21.66 -8 22 C-8 21.34 -8 20.68 -8 20 C-7.030625 19.4225 -6.06125 18.845 -5.0625 18.25 C-2.33715482 16.15161217 -2.01175414 15.06833073 -1.4140625 11.59375 C-1.26469217 9.05960507 -1.16075585 6.52231616 -1.10546875 3.984375 C-1 1 -1 1 0 0 Z " fill="#070707" transform="translate(49,12)"/>
<path d="M0 0 C0.33 -3.96 0.66 -7.92 1 -12 C3.64 -12 6.28 -12 9 -12 C9.495 -8.535 9.495 -8.535 10 -5 C10.66 -5.33 11.32 -5.66 12 -6 C12.68860107 -5.18958252 13.37720215 -4.37916504 14.08666992 -3.54418945 C17.56497649 -0.50661024 19.0694666 -0.35521279 23.61328125 -0.29296875 C24.86044922 -0.26396484 26.10761719 -0.23496094 27.39257812 -0.20507812 C28.68615234 -0.19927734 29.97972656 -0.19347656 31.3125 -0.1875 C32.62541016 -0.16236328 33.93832031 -0.13722656 35.29101562 -0.11132812 C38.52764489 -0.05248032 41.76292218 -0.01618063 45 0 C45.495 0.99 45.495 0.99 46 2 C45.34 2.99 44.68 3.98 44 5 C41.12670898 5.41650391 41.12670898 5.41650391 37.49609375 5.4765625 C36.19865234 5.5075 34.90121094 5.5384375 33.56445312 5.5703125 C32.1888125 5.5893117 30.81316091 5.60753129 29.4375 5.625 C26.74849348 5.6729335 24.0599064 5.73023219 21.37109375 5.7890625 C20.17411865 5.80662598 18.97714355 5.82418945 17.74389648 5.84228516 C15.08859116 5.68962044 15.08859116 5.68962044 14 7 C18.92957259 7.07414321 23.85882081 7.12859817 28.78881836 7.16479492 C30.4659592 7.17988384 32.14306057 7.20035748 33.82006836 7.22631836 C36.23040504 7.26269811 38.64022019 7.27972486 41.05078125 7.29296875 C42.17592888 7.31619453 42.17592888 7.31619453 43.32380676 7.33988953 C47.45140064 7.37562127 47.45140064 7.37562127 50.99682617 5.48168945 C51.32787354 4.99273193 51.6589209 4.50377441 52 4 C51.01 1.525 51.01 1.525 50 -1 C52.43270079 -0.05830937 53.72437686 0.52981934 55.0625 2.8125 C55 5 55 5 52.6875 7.5625 C51.3571875 8.7690625 51.3571875 8.7690625 50 10 C49.01 11.485 49.01 11.485 48 13 C45.23371085 13.2667616 42.69380369 13.34804189 39.9296875 13.29296875 C39.13345978 13.28872391 38.33723206 13.28447906 37.51687622 13.28010559 C34.96924271 13.26328834 32.42239511 13.22563179 29.875 13.1875 C28.14975099 13.17245705 26.42448961 13.15876796 24.69921875 13.14648438 C20.46584218 13.11337501 16.23305441 13.06157285 12 13 C12 12.34 12 11.68 12 11 C11.01 11.66 10.02 12.32 9 13 C6.66800612 13.07905064 4.33167378 13.08798769 2 13 C2 12.34 2 11.68 2 11 C3.65 11 5.3 11 7 11 C7 10.34 7 9.68 7 9 C4.69 9 2.38 9 0 9 C-0.33 8.01 -0.66 7.02 -1 6 C-2.64130738 5.2731353 -4.31466544 4.61795601 -6 4 C-9.05762045 2.27602251 -12.05540643 0.46664307 -15.0625 -1.34375 C-18.25997575 -3.23207543 -18.25997575 -3.23207543 -23 -5 C-23.33 -0.71 -23.66 3.58 -24 8 C-25.98 8 -27.96 8 -30 8 C-30.02683987 5.02077407 -30.04676037 2.04178705 -30.0625 -0.9375 C-30.07087891 -1.78763672 -30.07925781 -2.63777344 -30.08789062 -3.51367188 C-30.09111328 -4.32255859 -30.09433594 -5.13144531 -30.09765625 -5.96484375 C-30.10289307 -6.7137085 -30.10812988 -7.46257324 -30.11352539 -8.23413086 C-30 -10 -30 -10 -29 -11 C-18.8326342 -14.38912193 -8.30824446 -5.13156276 0 0 Z " fill="#171616" transform="translate(81,21)"/>
<path d="M0 0 C0.81047287 0.01325821 1.62094574 0.02651642 2.45597839 0.04017639 C3.29936264 0.03776443 4.14274689 0.03535248 5.01168823 0.03286743 C6.79451704 0.03384578 8.57737626 0.0472367 10.36003113 0.07215881 C13.07341739 0.10633977 15.78352174 0.09285125 18.49699402 0.07337952 C20.23333589 0.08028221 21.96966938 0.08995841 23.70597839 0.10267639 C24.51037857 0.09771652 25.31477875 0.09275665 26.14355469 0.08764648 C31.78277298 0.20402393 35.08999784 1.52731674 39.78019714 4.66908264 C39.88861666 6.58449402 39.96597793 8.50168038 40.03019714 10.41908264 C40.07660339 11.48642639 40.12300964 12.55377014 40.17082214 13.65345764 C39.69219034 17.3484952 38.56315165 18.30858803 35.78019714 20.66908264 C34.60445003 22.76897916 34.60445003 22.76897916 33.78019714 24.66908264 C32.78019714 25.66908264 32.78019714 25.66908264 29.1783905 25.78260803 C27.57559858 25.78244889 25.97280154 25.77675328 24.37004089 25.76673889 C23.52800613 25.76532394 22.68597137 25.763909 21.81842041 25.76245117 C19.1181438 25.75683527 16.41794887 25.74428013 13.71769714 25.73158264 C11.89152646 25.72656969 10.06535449 25.72200643 8.23918152 25.71791077 C3.75282172 25.70686068 -0.7334767 25.68958543 -5.21980286 25.66908264 C-5.21980286 25.00908264 -5.21980286 24.34908264 -5.21980286 23.66908264 C13.59019714 23.17408264 13.59019714 23.17408264 32.78019714 22.66908264 C21.23019714 22.33908264 9.68019714 22.00908264 -2.21980286 21.66908264 C-2.21980286 17.37908264 -2.21980286 13.08908264 -2.21980286 8.66908264 C-0.56980286 8.66908264 1.08019714 8.66908264 2.78019714 8.66908264 C2.78019714 10.97908264 2.78019714 13.28908264 2.78019714 15.66908264 C12.68019714 15.33908264 22.58019714 15.00908264 32.78019714 14.66908264 C32.78019714 12.68908264 32.78019714 10.70908264 32.78019714 8.66908264 C29.77018863 6.6624103 29.14527258 6.41416293 25.76774597 6.35023499 C24.96714249 6.3303653 24.166539 6.31049561 23.3416748 6.2900238 C22.48220749 6.2784726 21.62274017 6.26692139 20.73722839 6.25502014 C19.85363144 6.23565399 18.97003448 6.21628784 18.05966187 6.19633484 C15.23743849 6.13655459 12.41517429 6.09015998 9.59269714 6.04408264 C7.6792679 6.00590142 5.76585581 5.9668496 3.85246277 5.92689514 C-0.83815307 5.83085433 -5.52884937 5.74681754 -10.21980286 5.66908264 C-7.47537481 1.03651016 -5.35345751 0.08852658 0 0 Z " fill="#929192" transform="translate(142.2198028564453,8.330917358398438)"/>
<path d="M0 0 C2.11158563 0.17670173 4.21601247 0.44217313 6.3125 0.75 C7.46363281 0.90984375 8.61476563 1.0696875 9.80078125 1.234375 C13.01523045 2.00364489 14.61979273 2.75914912 17 5 C17.680625 6.175625 17.680625 6.175625 18.375 7.375 C20.46325796 10.74833979 22.87645709 12.57057774 26 15 C28.77042109 12.22957891 28.39796106 10.23466195 28.625 6.375 C28.69976562 5.18648437 28.77453125 3.99796875 28.8515625 2.7734375 C28.90054688 1.85820312 28.94953125 0.94296875 29 0 C31.31 0 33.62 0 36 0 C36.21737292 2.20391989 36.37183178 4.41409819 36.5 6.625 C36.5928125 7.85476562 36.685625 9.08453125 36.78125 10.3515625 C35.80988691 14.88782814 34.48722086 16.35381657 30.67871094 18.87060547 C25.12562921 21.21188838 19.30690137 20.85677422 13.375 20.75 C12.07820313 20.77320312 10.78140625 20.79640625 9.4453125 20.8203125 C-1.07907843 20.75534712 -1.07907843 20.75534712 -4.875 17.3828125 C-7.28989895 13.53850645 -7.6497512 11.61260288 -7.375 7.125 C-7.32085937 5.97257813 -7.26671875 4.82015625 -7.2109375 3.6328125 C-7.14132813 2.76398437 -7.07171875 1.89515625 -7 1 C-5.5459375 1.0309375 -5.5459375 1.0309375 -4.0625 1.0625 C-1.12534105 1.35618499 -1.12534105 1.35618499 0 0 Z " fill="#9E9D9D" transform="translate(8,9)"/>
<path d="M0 0 C0.33 -3.3 0.66 -6.6 1 -10 C2.98 -10.33 4.96 -10.66 7 -11 C7 -4.73 7 1.54 7 8 C0.2516623 8 0.2516623 8 -3.3125 5.91796875 C-4.07820313 5.48033203 -4.84390625 5.04269531 -5.6328125 4.59179688 C-6.41398437 4.12837891 -7.19515625 3.66496094 -8 3.1875 C-9.5619025 2.2841224 -11.12439066 1.38175654 -12.6875 0.48046875 C-13.42226562 0.0529834 -14.15703125 -0.37450195 -14.9140625 -0.81494141 C-17.56271863 -2.31969057 -20.25680202 -3.67675867 -23 -5 C-23.33 -0.71 -23.66 3.58 -24 8 C-25.98 8 -27.96 8 -30 8 C-30.02683987 5.02077407 -30.04676037 2.04178705 -30.0625 -0.9375 C-30.07087891 -1.78763672 -30.07925781 -2.63777344 -30.08789062 -3.51367188 C-30.09111328 -4.32255859 -30.09433594 -5.13144531 -30.09765625 -5.96484375 C-30.10289307 -6.7137085 -30.10812988 -7.46257324 -30.11352539 -8.23413086 C-30 -10 -30 -10 -29 -11 C-18.8326342 -14.38912193 -8.30824446 -5.13156276 0 0 Z " fill="#CDCDCD" transform="translate(81,21)"/>
<path d="M0 0 C0.74362793 0.01047363 1.48725586 0.02094727 2.25341797 0.03173828 C3.46191406 0.04140625 3.46191406 0.04140625 4.69482422 0.05126953 C5.95746094 0.07640625 5.95746094 0.07640625 7.24560547 0.10205078 C8.51984375 0.11558594 8.51984375 0.11558594 9.81982422 0.12939453 C11.9202043 0.15299431 14.02043991 0.18886595 16.12060547 0.22705078 C16.12060547 0.55705078 16.12060547 0.88705078 16.12060547 1.22705078 C14.74775391 1.283125 14.74775391 1.283125 13.34716797 1.34033203 C12.15865234 1.40607422 10.97013672 1.47181641 9.74560547 1.53955078 C8.56224609 1.59755859 7.37888672 1.65556641 6.15966797 1.71533203 C5.15677734 1.88419922 4.15388672 2.05306641 3.12060547 2.22705078 C2.13060547 3.71205078 2.13060547 3.71205078 1.12060547 5.22705078 C1.9781543 5.23115967 2.83570312 5.23526855 3.71923828 5.23950195 C6.91044988 5.26652047 10.10034792 5.31564356 13.29101562 5.37963867 C14.67012744 5.40279117 16.04941537 5.41720804 17.42871094 5.42260742 C19.41479442 5.43191495 21.40062273 5.47556563 23.38623047 5.52001953 C24.58022461 5.53572998 25.77421875 5.55144043 27.00439453 5.56762695 C30.12060547 6.22705078 30.12060547 6.22705078 32.54150391 8.77124023 C33.06260742 9.58165771 33.58371094 10.3920752 34.12060547 11.22705078 C32.96887192 13.69505125 32.07276981 15.27488644 30.12060547 17.22705078 C27.39574819 17.40222825 24.77401185 17.45854211 22.05029297 17.42236328 C21.25406525 17.41953339 20.45783752 17.41670349 19.63748169 17.41378784 C17.09003784 17.40257718 14.54294336 17.3774714 11.99560547 17.35205078 C10.27035012 17.34202211 8.54508928 17.33289606 6.81982422 17.32470703 C2.58661633 17.302635 -1.64632983 17.26809945 -5.87939453 17.22705078 C-4.88939453 15.74205078 -4.88939453 15.74205078 -3.87939453 14.22705078 C-0.99023438 13.79467773 -0.99023438 13.79467773 2.65966797 13.71533203 C3.96162109 13.67988281 5.26357422 13.64443359 6.60498047 13.60791016 C7.98518356 13.58480847 9.36539203 13.56202614 10.74560547 13.53955078 C12.13365898 13.50638633 13.52168154 13.47189748 14.90966797 13.43603516 C18.31323253 13.35330963 21.71653137 13.28423822 25.12060547 13.22705078 C25.45060547 12.23705078 25.78060547 11.24705078 26.12060547 10.22705078 C25.29334961 10.21246826 24.46609375 10.19788574 23.61376953 10.18286133 C19.86557666 10.10839218 16.1182755 10.01172618 12.37060547 9.91455078 C11.06865234 9.89199219 9.76669922 9.86943359 8.42529297 9.84619141 C7.17490234 9.81074219 5.92451172 9.77529297 4.63623047 9.73876953 C3.48413086 9.71258545 2.33203125 9.68640137 1.14501953 9.65942383 C-2.09805131 9.1957914 -3.50076289 8.4193733 -5.87939453 6.22705078 C-3.15109057 0.38068514 -3.15109057 0.38068514 0 0 Z " fill="#E7E7E7" transform="translate(99.87939453125,11.77294921875)"/>
<path d="M0 0 C2.08519216 0.2561291 4.1681505 0.53048735 6.25 0.8125 C7.41015625 0.96332031 8.5703125 1.11414063 9.765625 1.26953125 C13.02648581 2.0059817 14.60018618 2.72945015 17 5 C17.474375 5.804375 17.94875 6.60875 18.4375 7.4375 C19.90489905 10.17728198 19.90489905 10.17728198 22.6875 12.125 C23.450625 12.74375 24.21375 13.3625 25 14 C25 14.99 25 15.98 25 17 C21.52085059 17.02887814 18.04173169 17.04675687 14.5625 17.0625 C13.07266602 17.07506836 13.07266602 17.07506836 11.55273438 17.08789062 C10.60849609 17.09111328 9.66425781 17.09433594 8.69140625 17.09765625 C7.37958374 17.10551147 7.37958374 17.10551147 6.04125977 17.11352539 C2.4610722 16.91441198 0.46866327 13.46866327 -2 11 C-1.34 11 -0.68 11 0 11 C0 7.37 0 3.74 0 0 Z " fill="#908F8F" transform="translate(8,9)"/>
<path d="M0 0 C5.76575914 -0.07418336 11.53124017 -0.12861797 17.29736328 -0.16479492 C19.25867553 -0.17987695 21.21995408 -0.20034547 23.18115234 -0.22631836 C26.00106118 -0.26272731 28.82052392 -0.27973216 31.640625 -0.29296875 C32.51680481 -0.30845261 33.39298462 -0.32393646 34.29571533 -0.33988953 C40.33768379 -0.341558 40.33768379 -0.341558 43.56542969 1.32299805 C45 3 45 3 45.3125 6.125 C45 9 45 9 44 10 C41.85441173 10.08775605 39.70595579 10.10695219 37.55859375 10.09765625 C36.25341797 10.09443359 34.94824219 10.09121094 33.60351562 10.08789062 C32.2148431 10.07953401 30.82617123 10.07106905 29.4375 10.0625 C28.04492344 10.05748666 26.65234519 10.05292347 25.25976562 10.04882812 C21.8398013 10.03699434 18.41992156 10.0205088 15 10 C15 7.36 15 4.72 15 2 C10.05 1.67 5.1 1.34 0 1 C0 0.67 0 0.34 0 0 Z " fill="#0B0A0B" transform="translate(131,14)"/>
<path d="M0 0 C0.81360992 0.01639526 1.62721985 0.03279053 2.46548462 0.04968262 C3.7341185 0.04962219 3.7341185 0.04962219 5.02838135 0.04956055 C6.81543413 0.05491526 8.60248635 0.07249616 10.38931274 0.10144043 C13.11335937 0.14318455 15.83492299 0.14251711 18.55923462 0.13562012 C20.29883501 0.14611738 22.03842272 0.15905837 23.77798462 0.17468262 C24.99232681 0.17498474 24.99232681 0.17498474 26.23120117 0.17529297 C31.13724955 0.27701276 34.4473097 1.04615552 38.75454712 3.64343262 C38.75454712 7.27343262 38.75454712 10.90343262 38.75454712 14.64343262 C37.43454712 14.64343262 36.11454712 14.64343262 34.75454712 14.64343262 C34.75454712 12.33343262 34.75454712 10.02343262 34.75454712 7.64343262 C30.02165012 6.46126012 25.36460927 6.42244933 20.51626587 6.32702637 C19.63549881 6.30624527 18.75473175 6.28546417 17.84727478 6.26405334 C15.04560833 6.19889325 12.24385154 6.13982941 9.44204712 6.08093262 C7.53774106 6.03771547 5.633444 5.99410017 3.72915649 5.95007324 C-0.92895507 5.84324639 -5.58715711 5.74188522 -10.24545288 5.64343262 C-7.49674206 0.99247745 -5.36822397 0.06562986 0 0 Z " fill="#D9D9D9" transform="translate(142.24545288085938,8.3565673828125)"/>
<path d="M0 0 C1.32 0.33 2.64 0.66 4 1 C4.13548815 3.73083902 4.23429855 6.45491807 4.3125 9.1875 C4.35439453 9.95642578 4.39628906 10.72535156 4.43945312 11.51757812 C4.53311021 15.88199844 4.40249795 17.48719266 1.60546875 21.05078125 C-1 23 -1 23 -3 23 C-3 23.66 -3 24.32 -3 25 C-12.69527822 25.19219715 -22.32867432 24.59581324 -32 24 C-32 23.67 -32 23.34 -32 23 C-24.08 22.67 -16.16 22.34 -8 22 C-17.57 21.67 -27.14 21.34 -37 21 C-37 20.67 -37 20.34 -37 20 C-36.1529248 19.99589111 -35.30584961 19.99178223 -34.43310547 19.98754883 C-31.26793746 19.96046092 -28.1040766 19.91126375 -24.93945312 19.84741211 C-23.57401335 19.82432106 -22.20839771 19.8098573 -20.84277344 19.80444336 C-11.92221958 20.12915165 -11.92221958 20.12915165 -4.1953125 16.44921875 C-3.47085938 15.64097656 -2.74640625 14.83273438 -2 14 C-1.34 14 -0.68 14 0 14 C0 9.38 0 4.76 0 0 Z " fill="#403F40" transform="translate(44,9)"/>
<path d="M0 0 C1.32 0 2.64 0 4 0 C4 5.28 4 10.56 4 16 C-3.87153135 14.87549552 -3.87153135 14.87549552 -7.296875 12.75 C-8.02777344 12.3065625 -8.75867188 11.863125 -9.51171875 11.40625 C-10.25035156 10.9421875 -10.98898438 10.478125 -11.75 10 C-13.24336286 9.08100747 -14.73809965 8.16424284 -16.234375 7.25 C-16.88631836 6.84265625 -17.53826172 6.4353125 -18.20996094 6.015625 C-20.13298985 4.84838437 -20.13298985 4.84838437 -23 4 C-23 3.01 -23 2.02 -23 1 C-14.14127707 2.22189282 -7.50149802 6.41160149 0 11 C0 7.37 0 3.74 0 0 Z " fill="#E6E6E6" transform="translate(83,13)"/>
<path d="M0 0 C1.12350861 0.00848969 1.12350861 0.00848969 2.26971436 0.01715088 C4.654427 0.03948443 7.03761908 0.08967114 9.421875 0.140625 C11.04164491 0.16069409 12.66143846 0.17894415 14.28125 0.1953125 C18.24537466 0.23933876 22.20836732 0.30834202 26.171875 0.390625 C25.171875 3.390625 25.171875 3.390625 22.171875 5.390625 C19.44458008 5.61767578 19.44458008 5.61767578 16.19140625 5.5859375 C14.44633789 5.57626953 14.44633789 5.57626953 12.66601562 5.56640625 C11.45107422 5.54964844 10.23613281 5.53289063 8.984375 5.515625 C7.75783203 5.50660156 6.53128906 5.49757813 5.26757812 5.48828125 C2.23548205 5.46468517 -0.79622438 5.43176341 -3.828125 5.390625 C-3.828125 5.060625 -3.828125 4.730625 -3.828125 4.390625 C-7.43109094 3.97885746 -8.61214567 4.2370397 -11.640625 6.390625 C-12.7234375 7.380625 -12.7234375 7.380625 -13.828125 8.390625 C-10.8564145 1.45663382 -7.35090931 -0.20988557 0 0 Z " fill="#7C7B7D" transform="translate(106.828125,8.609375)"/>
<path d="M0 0 C9.24 0 18.48 0 28 0 C28.33 0.66 28.66 1.32 29 2 C28.01 3.485 28.01 3.485 27 5 C24.20263672 5.34057617 24.20263672 5.34057617 20.6796875 5.29296875 C19.42285156 5.28330078 18.16601562 5.27363281 16.87109375 5.26367188 C15.55238281 5.23853516 14.23367187 5.21339844 12.875 5.1875 C11.53517097 5.17245483 10.19532596 5.15876613 8.85546875 5.14648438 C5.56991158 5.11102872 2.28515418 5.06160849 -1 5 C-0.34 4.67 0.32 4.34 1 4 C0.67 2.68 0.34 1.36 0 0 Z " fill="#474646" transform="translate(98,21)"/>
<path d="M0 0 C3.387199 1.4388102 5.3594104 3.22119499 7.75 6 C8.67039062 7.051875 8.67039062 7.051875 9.609375 8.125 C11 10 11 10 11 12 C16.94 12.99 16.94 12.99 23 14 C23 14.33 23 14.66 23 15 C16.07 15 9.14 15 2 15 C1.34 13.68 0.68 12.36 0 11 C-0.33 10.67 -0.66 10.34 -1 10 C-1.0979057 8.50261876 -1.12974864 7.00057108 -1.125 5.5 C-1.12757812 4.6853125 -1.13015625 3.870625 -1.1328125 3.03125 C-1 1 -1 1 0 0 Z " fill="#343334" transform="translate(10,11)"/>
<path d="M0 0 C2.31 0 4.62 0 7 0 C8.2121127 12.28947599 8.2121127 12.28947599 5.39453125 16.265625 C1.54401451 19.24200943 -1.09288304 20.2921926 -6 20 C-4.47793991 17.37098712 -3.15634036 15.15634036 -1 13 C-0.53513282 9.87803664 -0.53513282 9.87803664 -0.375 6.375 C-0.30023438 5.18648437 -0.22546875 3.99796875 -0.1484375 2.7734375 C-0.09945312 1.85820312 -0.05046875 0.94296875 0 0 Z " fill="#AAAAAA" transform="translate(37,9)"/>
<path d="M0 0 C0.99 0.33 1.98 0.66 3 1 C1.68 2.32 0.36 3.64 -1 5 C17.315 5.495 17.315 5.495 36 6 C36 6.33 36 6.66 36 7 C28.41 7 20.82 7 13 7 C13 9.64 13 12.28 13 15 C12.67 15 12.34 15 12 15 C12 12.69 12 10.38 12 8 C10.35 8 8.7 8 7 8 C7 12.29 7 16.58 7 21 C6.34 21.33 5.68 21.66 5 22 C5 17.38 5 12.76 5 8 C0.545 8.495 0.545 8.495 -4 9 C-3.38461538 3.46153846 -3.38461538 3.46153846 -1.4375 1.125 C-0.963125 0.75375 -0.48875 0.3825 0 0 Z " fill="#393838" transform="translate(133,9)"/>
<path d="M0 0 C5.76575914 -0.07418336 11.53124017 -0.12861797 17.29736328 -0.16479492 C19.25867553 -0.17987695 21.21995408 -0.20034547 23.18115234 -0.22631836 C26.00106118 -0.26272731 28.82052392 -0.27973216 31.640625 -0.29296875 C32.51680481 -0.30845261 33.39298462 -0.32393646 34.29571533 -0.33988953 C37.89072713 -0.34088228 40.33583142 -0.34098278 43.56933594 1.3190918 C45 3 45 3 45.25 6.1875 C45.1675 7.115625 45.085 8.04375 45 9 C43.68 9.33 42.36 9.66 41 10 C41.33 8.68 41.66 7.36 42 6 C38.78345298 4.11375329 36.28567739 3.70952258 32.578125 3.5859375 C31.04091797 3.52792969 31.04091797 3.52792969 29.47265625 3.46875 C28.40917969 3.4378125 27.34570312 3.406875 26.25 3.375 C24.63158203 3.31699219 24.63158203 3.31699219 22.98046875 3.2578125 C20.32048225 3.16365369 17.6605006 3.07802613 15 3 C15 2.67 15 2.34 15 2 C10.05 1.67 5.1 1.34 0 1 C0 0.67 0 0.34 0 0 Z " fill="#212020" transform="translate(131,14)"/>
<path d="M0 0 C1.65 0 3.3 0 5 0 C5 2.97 5 5.94 5 9 C8.96 9 12.92 9 17 9 C16.67 9.99 16.34 10.98 16 12 C10.72 12 5.44 12 0 12 C0 8.04 0 4.08 0 0 Z " fill="#D5D5D5" transform="translate(140,17)"/>
<path d="M0 0 C0.33 -3.3 0.66 -6.6 1 -10 C2.98 -10.33 4.96 -10.66 7 -11 C7 -4.73 7 1.54 7 8 C6.67 8 6.34 8 6 8 C6 2.72 6 -2.56 6 -8 C4.68 -8 3.36 -8 2 -8 C2 -4.37 2 -0.74 2 3 C-4.21013635 1.28584565 -9.17805524 -2.01266042 -14.546875 -5.45507812 C-19.47729974 -8.48542041 -23.20753309 -9.67964912 -29 -10 C-29 -10.33 -29 -10.66 -29 -11 C-18.733226 -14.26670082 -8.39013387 -5.18214151 0 0 Z " fill="#9A9999" transform="translate(81,21)"/>
<path d="M0 0 C2.64 0 5.28 0 8 0 C8 8.25 8 16.5 8 25 C5.69 25 3.38 25 1 25 C1 24.34 1 23.68 1 23 C2.65 23 4.3 23 6 23 C6 22.34 6 21.68 6 21 C3.69 21 1.38 21 -1 21 C-1.33 20.34 -1.66 19.68 -2 19 C0.64 19.33 3.28 19.66 6 20 C5.67 14.06 5.34 8.12 5 2 C3.35 2 1.7 2 0 2 C0 1.34 0 0.68 0 0 Z " fill="#504D4F" transform="translate(82,9)"/>
<path d="M0 0 C11.88 0.33 23.76 0.66 36 1 C36 1.66 36 2.32 36 3 C24.12 3 12.24 3 0 3 C0 2.01 0 1.02 0 0 Z " fill="#444343" transform="translate(93,31)"/>
<path d="M0 0 C2.89401051 1.29731506 5.16400267 2.37714667 7 5 C7.55177892 7.67931112 7.77564586 10.26287955 8 13 C6.125 12.6875 6.125 12.6875 4 12 C3.34 11.01 2.68 10.02 2 9 C1.01 9 0.02 9 -1 9 C-1.09765625 2.84765625 -1.09765625 2.84765625 -1 1 C-0.67 0.67 -0.34 0.34 0 0 Z " fill="#1E1D1E" transform="translate(10,11)"/>
<path d="M0 0 C1.9375 0.75 1.9375 0.75 4 2 C4.75 4.125 4.75 4.125 5 6 C1.97749904 9.04091481 0.35842612 9.95894115 -3.96411133 10.45410156 C-5.50356326 10.45347337 -7.04311332 10.43117411 -8.58203125 10.390625 C-9.80329964 10.38213531 -9.80329964 10.38213531 -11.04924011 10.37347412 C-13.63760353 10.35116774 -16.2245584 10.30098445 -18.8125 10.25 C-20.57224556 10.22992747 -22.33201293 10.21167802 -24.09179688 10.1953125 C-28.39507005 10.15132207 -32.6972966 10.08233627 -37 10 C-37 9.67 -37 9.34 -37 9 C-35.92516357 8.98541748 -34.85032715 8.97083496 -33.74291992 8.95581055 C-29.75625283 8.8978511 -25.77015199 8.82061871 -21.78393555 8.73754883 C-20.05844307 8.70428828 -18.33284151 8.67625981 -16.60717773 8.65356445 C-14.12696834 8.62003847 -11.6477597 8.56772594 -9.16796875 8.51171875 C-8.01001045 8.50213387 -8.01001045 8.50213387 -6.82865906 8.49235535 C-2.61306923 8.41234246 -2.61306923 8.41234246 1.01049805 6.46801758 C1.33703369 5.98357178 1.66356934 5.49912598 2 5 C1.34 3.35 0.68 1.7 0 0 Z " fill="#6D6A6C" transform="translate(131,20)"/>
<path d="M0 0 C0.33 0 0.66 0 1 0 C1 3.96 1 7.92 1 12 C1.99 12 2.98 12 4 12 C4.33 9.03 4.66 6.06 5 3 C5.33 3 5.66 3 6 3 C6 7.95 6 12.9 6 18 C4.02 18 2.04 18 0 18 C0 12.06 0 6.12 0 0 Z " fill="#9D9D9C" transform="translate(51,11)"/>
<path d="M0 0 C1.93166016 0.01740234 1.93166016 0.01740234 3.90234375 0.03515625 C5.19269531 0.04417969 6.48304687 0.05320312 7.8125 0.0625 C8.81152344 0.07410156 9.81054688 0.08570313 10.83984375 0.09765625 C9.84984375 1.58265625 9.84984375 1.58265625 8.83984375 3.09765625 C6.22607422 3.43823242 6.22607422 3.43823242 2.95703125 3.390625 C1.79042969 3.38095703 0.62382813 3.37128906 -0.578125 3.36132812 C-1.80144531 3.33619141 -3.02476563 3.31105469 -4.28515625 3.28515625 C-5.51621094 3.27162109 -6.74726562 3.25808594 -8.015625 3.24414062 C-11.06423468 3.20869168 -14.11198125 3.15927704 -17.16015625 3.09765625 C-17.16015625 2.76765625 -17.16015625 2.43765625 -17.16015625 2.09765625 C-16.23332031 2.03707031 -15.30648437 1.97648438 -14.3515625 1.9140625 C-12.55525391 1.78837891 -12.55525391 1.78837891 -10.72265625 1.66015625 C-8.93021484 1.53833984 -8.93021484 1.53833984 -7.1015625 1.4140625 C-3.66032205 1.04388922 -3.53377063 0.10920181 0 0 Z " fill="#ADACAC" transform="translate(120.16015625,10.90234375)"/>
<path d="M0 0 C-0.33 0.99 -0.66 1.98 -1 3 C-6.28 3 -11.56 3 -17 3 C-16.67 2.01 -16.34 1.02 -16 0 C-13.7089095 -0.19441368 -11.41709663 -0.38033135 -9.125 -0.5625 C-7.21074219 -0.71912109 -7.21074219 -0.71912109 -5.2578125 -0.87890625 C-2 -1 -2 -1 0 0 Z " fill="#B4B3B3" transform="translate(173,26)"/>
<path d="M0 0 C2.64 0 5.28 0 8 0 C8.33 1.98 8.66 3.96 9 6 C6.36 6 3.72 6 1 6 C0.67 4.02 0.34 2.04 0 0 Z " fill="#212020" transform="translate(166,34)"/>
<path d="M0 0 C4.92784505 0.417313 6.9777145 2.54985927 10.3125 6.0625 C11.19550781 6.98160156 12.07851563 7.90070312 12.98828125 8.84765625 C13.65214844 9.55792969 14.31601562 10.26820312 15 11 C11.03878345 11 9.48792906 10.45039605 6.5625 7.75 C4.23509795 5.25230024 2.08434397 2.70192737 0 0 Z " fill="#ABAAA9" transform="translate(13,12)"/>
<path d="M0 0 C0.80244141 0.00966797 1.60488281 0.01933594 2.43164062 0.02929688 C3.26501953 0.05443359 4.09839844 0.07957031 4.95703125 0.10546875 C6.22450195 0.12577148 6.22450195 0.12577148 7.51757812 0.14648438 C9.60183509 0.18181076 11.68576402 0.23561736 13.76953125 0.29296875 C13.76953125 0.62296875 13.76953125 0.95296875 13.76953125 1.29296875 C12.86589844 1.34195312 11.96226563 1.3909375 11.03125 1.44140625 C9.85175781 1.51617187 8.67226562 1.5909375 7.45703125 1.66796875 C5.69939453 1.77238281 5.69939453 1.77238281 3.90625 1.87890625 C0.61253238 2.07910622 0.61253238 2.07910622 -2.23046875 4.29296875 C-3.22046875 4.29296875 -4.21046875 4.29296875 -5.23046875 4.29296875 C-5.89046875 5.28296875 -6.55046875 6.27296875 -7.23046875 7.29296875 C-7.23046875 3.29296875 -7.23046875 3.29296875 -5.99487305 1.5612793 C-3.81340081 -0.0068331 -2.66544679 -0.05671163 0 0 Z " fill="#C7C7C6" transform="translate(102.23046875,11.70703125)"/>
<path d="M0 0 C1.16595703 0.19335938 1.16595703 0.19335938 2.35546875 0.390625 C3.54462891 0.56078125 3.54462891 0.56078125 4.7578125 0.734375 C6.7100026 1.01661935 8.65823401 1.32600629 10.60546875 1.640625 C10.60546875 1.970625 10.60546875 2.300625 10.60546875 2.640625 C8.74341797 2.67929688 8.74341797 2.67929688 6.84375 2.71875 C5.20178847 2.77504582 3.55986275 2.83239283 1.91796875 2.890625 C0.69303711 2.91189453 0.69303711 2.91189453 -0.55664062 2.93359375 C-5.7449991 3.14364875 -8.5931179 3.76953197 -12.39453125 7.640625 C-9.6176987 1.16134904 -6.92116248 -0.94648376 0 0 Z " fill="#848383" transform="translate(105.39453125,9.359375)"/>
<path d="M0 0 C3.3 0.33 6.6 0.66 10 1 C9.67 1.99 9.34 2.98 9 4 C6.69 3.67 4.38 3.34 2 3 C1.9727585 4.41655793 1.95349533 5.83327045 1.9375 7.25 C1.92589844 8.03890625 1.91429687 8.8278125 1.90234375 9.640625 C1.99614694 11.90691002 2.36758937 13.8288895 3 16 C1.35 14.35 -0.3 12.7 -2 11 C-1.34 11 -0.68 11 0 11 C0 7.37 0 3.74 0 0 Z " fill="#828082" transform="translate(8,9)"/>
<path d="M0 0 C1.32 0 2.64 0 4 0 C4 3.3 4 6.6 4 10 C2.68 9.67 1.36 9.34 0 9 C0 6.03 0 3.06 0 0 Z " fill="#DFDFDF" transform="translate(52,14)"/>
<path d="M0 0 C0.66 0.33 1.32 0.66 2 1 C2.60342066 4.74120806 3 8.21680921 3 12 C1 10.1875 1 10.1875 -1 8 C-1 7.01 -1 6.02 -1 5 C-1.66 4.67 -2.32 4.34 -3 4 C-2.34 4 -1.68 4 -1 4 C-0.67 2.68 -0.34 1.36 0 0 Z " fill="#393838" transform="translate(26,9)"/>
<path d="M0 0 C1.32 0.66 2.64 1.32 4 2 C3.34 4.31 2.68 6.62 2 9 C1.01 9 0.02 9 -1 9 C-1.09765625 2.84765625 -1.09765625 2.84765625 -1 1 C-0.67 0.67 -0.34 0.34 0 0 Z " fill="#2E2D2E" transform="translate(10,11)"/>
<path d="M0 0 C4.50802601 1.25805377 7.4912812 2.90407165 11 6 C8.64316506 6.84172676 7.3613046 7.10948624 4.9375 6.375 C2.46969463 4.62365425 1.39630726 2.65298379 0 0 Z " fill="#474545" transform="translate(69,22)"/>
<path d="M0 0 C3.3 0 6.6 0 10 0 C9.67 0.66 9.34 1.32 9 2 C6.71484375 2.4140625 6.71484375 2.4140625 3.9375 2.625 C3.01839844 2.69976563 2.09929687 2.77453125 1.15234375 2.8515625 C0.44207031 2.90054687 -0.26820313 2.94953125 -1 3 C-0.67 2.01 -0.34 1.02 0 0 Z " fill="#C0C0BF" transform="translate(157,26)"/>
<path d="M0 0 C4.95 0.99 4.95 0.99 10 2 C10 2.66 10 3.32 10 4 C4.62295082 5.3442623 4.62295082 5.3442623 1.625 3.6875 C0 2 0 2 0 0 Z " fill="#1C1A1A" transform="translate(78,28)"/>
<path d="M0 0 C1.9375 0.75 1.9375 0.75 4 2 C4.75 4.125 4.75 4.125 5 6 C3.35 7.32 1.7 8.64 0 10 C-0.66 9.67 -1.32 9.34 -2 9 C-0.68 7.68 0.64 6.36 2 5 C1.34 3.35 0.68 1.7 0 0 Z " fill="#474647" transform="translate(131,20)"/>
<path d="M0 0 C0.33 0 0.66 0 1 0 C1.309375 1.11375 1.61875 2.2275 1.9375 3.375 C2.82326483 6.7945155 2.82326483 6.7945155 4 9 C1.11424181 8.60196439 0.17810487 8.20990931 -1.75 5.9375 C-2.1625 5.298125 -2.575 4.65875 -3 4 C-2.01 4 -1.02 4 0 4 C0 2.68 0 1.36 0 0 Z " fill="#555455" transform="translate(12,16)"/>
<path d="M0 0 C0.89203125 0.19464844 1.7840625 0.38929687 2.703125 0.58984375 C3.37859375 0.74582031 4.0540625 0.90179687 4.75 1.0625 C4.75 1.3925 4.75 1.7225 4.75 2.0625 C0.46 2.0625 -3.83 2.0625 -8.25 2.0625 C-8.58 1.4025 -8.91 0.7425 -9.25 0.0625 C-5.84598052 -1.07482426 -3.47543336 -0.77739957 0 0 Z " fill="#3B3B3D" transform="translate(28.25,23.9375)"/>
<path d="M0 0 C3.37503669 1.1858237 5.64722731 2.27573689 8 5 C7.34 5.66 6.68 6.32 6 7 C1.125 2.25 1.125 2.25 0 0 Z " fill="#464545" transform="translate(61,17)"/>
<path d="M0 0 C2.37948772 0.17625835 3.70225849 0.69719773 5.37890625 2.40234375 C6.62115486 3.90649092 7.81376056 5.45129851 9 7 C5.21616321 6.07506212 3.43306306 5.60628829 1.125 2.375 C0.75375 1.59125 0.3825 0.8075 0 0 Z " fill="#B6B6B6" transform="translate(19,17)"/>
<path d="M0 0 C1.32 0 2.64 0 4 0 C4 1.65 4 3.3 4 5 C2.68 5 1.36 5 0 5 C0 3.35 0 1.7 0 0 Z " fill="#D9D8D7" transform="translate(177,18)"/>
<path d="M0 0 C0.78375 0.04125 1.5675 0.0825 2.375 0.125 C2.045 1.115 1.715 2.105 1.375 3.125 C0.055 3.125 -1.265 3.125 -2.625 3.125 C-3.285 4.115 -3.945 5.105 -4.625 6.125 C-4.625 1.71963177 -4.59063093 0.21860147 0 0 Z " fill="#D6D6D6" transform="translate(99.625,12.875)"/>
<path d="M0 0 C1.32 0 2.64 0 4 0 C4 1.65 4 3.3 4 5 C2.68 4.67 1.36 4.34 0 4 C0 2.68 0 1.36 0 0 Z " fill="#CECECE" transform="translate(52,19)"/>
</svg>
